<svg width="84" height="84" viewBox="0 0 84 84" fill="none" xmlns="http://www.w3.org/2000/svg">
<path d="M83.9135 40.4542C83.9135 40.4417 83.9135 40.4293 83.9135 40.4168C83.5057 36.6908 81.5781 34.7717 77.4634 34.1611C72.3477 33.3885 69.7405 32.4414 69.2092 30.485C69.1968 30.4601 69.1968 30.4351 69.1845 30.4102C69.1598 30.323 69.1227 30.2358 69.1103 30.1361C68.6902 28.5161 69.6787 26.273 71.9771 23.1203C72.113 22.9084 72.2242 22.7215 72.3725 22.5096C74.1024 19.8927 74.9056 17.2634 73.9788 14.7711C73.5216 13.8614 72.8173 12.9641 71.8658 12.042C70.8155 11.0077 69.7652 10.1728 68.7026 9.63693C66.3054 8.75216 63.8217 9.37524 61.128 11.5186C59.4598 13.1885 57.6434 14.7088 55.4069 14.6589C53.6893 14.9829 52.3548 14.3972 51.4034 12.8894C49.3027 10.7834 49.9206 7.68048 49.4387 4.95141C49.4387 4.93895 49.4387 4.93895 49.4387 4.92649C48.6231 1.17558 46.4237 -0.0830283 42.1853 0.00420213C38.256 0.0914325 35.5869 0.82666 34.549 4.51526C34.03 7.04494 34.3883 9.86124 32.9179 12.0295C31.9541 14.3224 30.5331 15.1574 28.4572 14.6464C26.9991 14.7212 25.714 14.0234 24.3425 12.8021C23.7864 12.3037 23.2304 11.8052 22.6743 11.3317C22.662 11.3192 22.6496 11.3192 22.6496 11.3068C18.9303 8.42817 15.7176 8.3534 12.3813 11.88C10.9973 13.338 10.0212 14.7461 9.60106 16.1917C9.04501 18.3226 9.72462 20.5532 12.1342 23.0579C13.6911 24.6779 15.075 26.4724 14.8773 28.7279C15.0132 29.9616 14.6302 30.9835 13.7034 31.8059C12.3071 33.7125 10.256 33.8496 7.9947 33.9244C7.67343 33.9742 7.35216 34.0365 6.99382 34.0864C2.1624 34.7344 0.0123566 37.0522 0 41.9994C0.0123566 46.9466 2.1624 49.2645 6.99382 49.9124C7.33981 49.9623 7.66107 50.0121 7.9947 50.0744C10.256 50.1492 12.3071 50.2863 13.7034 52.1929C14.6302 53.0154 15.0256 54.0372 14.8773 55.2709C15.075 57.5389 13.6911 59.3209 12.1342 60.9409C9.72462 63.4456 9.04501 65.6762 9.60106 67.8071C10.0088 69.2651 10.9973 70.6608 12.3813 72.1188C15.7176 75.6454 18.9303 75.5706 22.6496 72.692C22.662 72.6796 22.6743 72.6796 22.6743 72.6671C23.2304 72.1936 23.7864 71.6951 24.3425 71.1967C25.7264 69.963 27.0115 69.2651 28.4572 69.3524C30.5331 68.8414 31.9541 69.6764 32.9179 71.9693C34.3883 74.1376 34.0177 76.9539 34.549 79.4835C35.5746 83.1846 38.256 83.9074 42.1853 83.9946C46.4237 84.0943 48.6231 82.8232 49.4387 79.0848C49.4387 79.0723 49.4387 79.0723 49.4387 79.0599C49.9206 76.3308 49.3027 73.2279 51.4034 71.1219C52.3672 69.6141 53.6893 69.0284 55.4069 69.3524C57.6311 69.3025 59.4598 70.8228 61.128 72.4927C63.8217 74.6236 66.3054 75.2591 68.7026 74.3743C69.7652 73.8385 70.8155 73.0036 71.8782 71.9817C72.8297 71.0596 73.534 70.1624 73.9912 69.2527C74.9179 66.7479 74.1024 64.131 72.3848 61.5141C72.2489 61.3022 72.1253 61.1029 71.9894 60.9035C69.6911 57.7507 68.6902 55.5077 69.1227 53.8877C69.135 53.788 69.1721 53.7007 69.1968 53.6135C69.2092 53.5886 69.2092 53.5637 69.2215 53.5387C69.7529 51.5947 72.3601 50.6352 77.4757 49.8626C81.5905 49.2395 83.5057 47.3329 83.9259 43.6069C83.9259 43.5945 83.9259 43.582 83.9259 43.5696C83.9753 43.0836 84 42.5726 84 42.0243C83.9876 41.4636 83.9629 40.9402 83.9135 40.4542ZM42.3707 60.8661C32.2507 61.0281 23.4528 52.2677 23.4034 41.9994C23.3539 31.7311 32.1394 22.9707 42.346 23.1327C52.3301 23.2823 60.6214 31.8433 60.609 41.9869C60.5966 52.1431 52.3177 60.7166 42.3707 60.8661Z" fill="black"/>
</svg>
