<svg width="130" height="148" viewBox="0 0 130 148" fill="none" xmlns="http://www.w3.org/2000/svg">
<path fill-rule="evenodd" clip-rule="evenodd" d="M120.83 61.5619C126.148 51.5466 129.963 40.8629 130 29.2507C130.025 14.593 123.154 5.06055 109.498 1.49524C97.3431 -1.66723 85.6024 0.51038 74.1551 5H55.8373C55.2948 4.6305 54.5926 4.42908 53.9183 4.23572C53.6087 4.14685 53.305 4.0597 53.0253 3.95874C45.4086 1.1858 37.5311 -0.287471 29.3802 0.133427C8.43101 1.21045 -2.37905 14.3949 0.441754 35.094C1.83336 45.2206 5.64781 54.4683 10.1332 63.4932C13.9603 71.2058 16.2342 79.0669 14.7181 87.8318C11.2142 108.036 15.389 126.63 27.4291 143.293C32.3373 150.077 39.2455 149.359 42.8612 141.931C46.4774 134.504 48.7015 126.605 50.5404 118.583C50.7816 117.536 51.0106 116.484 51.2396 115.433C52.4491 109.875 53.6586 104.318 56.6781 99.3202C61.5243 91.2858 68.619 91.2858 73.4647 99.4069C75.577 102.96 76.8446 106.86 77.7889 110.883C78.0428 111.966 78.2933 113.05 78.5438 114.134C80.6976 123.448 82.8524 132.766 87.0707 141.449C91.034 149.632 97.93 150.263 103.099 142.699C113.325 127.744 118.656 111.378 115.761 93.1427C113.984 81.9637 115.45 71.6762 120.83 61.5619Z" fill="white"/>
</svg>
