<svg width="18" height="21" viewBox="0 0 18 21" fill="none" xmlns="http://www.w3.org/2000/svg">
<path d="M3.03732 17.2332C2.47425 17.2332 1.94809 17.0394 1.56963 16.6794C1.08963 16.227 0.858862 15.544 0.941939 14.8055L1.28348 11.8147C1.34809 11.2517 1.68963 10.504 2.08655 10.0978L9.66502 2.07628C11.5573 0.0732002 13.5327 0.0178158 15.5358 1.91012C17.5389 3.80243 17.5942 5.77782 15.7019 7.78089L8.12348 15.8024C7.73579 16.2178 7.01579 16.6055 6.45271 16.6978L3.4804 17.2055C3.32348 17.2147 3.18502 17.2332 3.03732 17.2332ZM12.6281 1.90089C11.9173 1.90089 11.2989 2.34397 10.6712 3.00859L3.09271 11.0394C2.90809 11.2332 2.69579 11.6947 2.65886 11.9624L2.31732 14.9532C2.2804 15.2578 2.35425 15.507 2.5204 15.664C2.68655 15.8209 2.93579 15.8763 3.2404 15.8301L6.21271 15.3224C6.4804 15.2763 6.92348 15.0363 7.10809 14.8424L14.6866 6.82089C15.8312 5.60243 16.2466 4.47628 14.5758 2.90705C13.8373 2.19628 13.2004 1.90089 12.6281 1.90089Z" fill="white"/>
<path d="M13.9299 9.32029C13.9114 9.32029 13.8837 9.32029 13.8652 9.32029C10.9852 9.03414 8.66832 6.84645 8.22524 3.98491C8.16986 3.60645 8.42832 3.25568 8.80678 3.19106C9.18524 3.13568 9.53601 3.39414 9.60063 3.7726C9.9514 6.00645 11.7606 7.72337 14.0129 7.94491C14.3914 7.98183 14.6683 8.32337 14.6314 8.70183C14.5852 9.0526 14.2806 9.32029 13.9299 9.32029Z" fill="white"/>
<path d="M17.3077 20.2166H0.692308C0.313846 20.2166 0 19.9028 0 19.5243C0 19.1459 0.313846 18.832 0.692308 18.832H17.3077C17.6862 18.832 18 19.1459 18 19.5243C18 19.9028 17.6862 20.2166 17.3077 20.2166Z" fill="white"/>
</svg>
