<svg width="11" height="13" viewBox="0 0 11 13" fill="none" xmlns="http://www.w3.org/2000/svg">
<path d="M1.85587 10.2067C1.51177 10.2067 1.19023 10.0883 0.958948 9.86829C0.665615 9.59188 0.524589 9.17444 0.575358 8.72316L0.784076 6.89547C0.823563 6.55136 1.03228 6.09444 1.27485 5.84624L5.90613 0.944183C7.06254 -0.279919 8.26972 -0.313765 9.49382 0.842645C10.7179 1.99906 10.7518 3.20623 9.59536 4.43034L4.96408 9.33239C4.72715 9.58624 4.28715 9.82316 3.94305 9.87957L2.12664 10.1898C2.03074 10.1955 1.94613 10.2067 1.85587 10.2067ZM7.7169 0.837004C7.28254 0.837004 6.90459 1.10777 6.521 1.51393L1.88972 6.42162C1.7769 6.54008 1.64715 6.82213 1.62459 6.98572L1.41587 8.81341C1.39331 8.99957 1.43844 9.15188 1.53997 9.24777C1.64151 9.34367 1.79382 9.37752 1.97997 9.34931L3.79638 9.03906C3.95997 9.01085 4.23074 8.86418 4.34356 8.74572L8.97484 3.84367C9.67433 3.09906 9.92818 2.41085 8.90715 1.45188C8.45587 1.01752 8.06664 0.837004 7.7169 0.837004Z" fill="#333333"/>
<path d="M8.51245 5.37228C8.50116 5.37228 8.48424 5.37228 8.47296 5.37228C6.71296 5.1974 5.29706 3.86048 5.02629 2.11176C4.99245 1.88048 5.1504 1.66612 5.38168 1.62663C5.61296 1.59279 5.82732 1.75074 5.86681 1.98202C6.08116 3.34715 7.18681 4.39638 8.56322 4.53176C8.7945 4.55433 8.96373 4.76304 8.94116 4.99433C8.91296 5.20869 8.72681 5.37228 8.51245 5.37228Z" fill="#333333"/>
<path d="M10.5769 12.0288H0.423077C0.191795 12.0288 0 11.837 0 11.6057C0 11.3744 0.191795 11.1826 0.423077 11.1826H10.5769C10.8082 11.1826 11 11.3744 11 11.6057C11 11.837 10.8082 12.0288 10.5769 12.0288Z" fill="#333333"/>
</svg>
