<svg width="33" height="33" viewBox="0 0 33 33" fill="none" xmlns="http://www.w3.org/2000/svg">
<path d="M15.7344 31.4688C7.06129 31.4688 0 24.4075 0 15.7344C0 7.06129 7.06129 0 15.7344 0C24.4075 0 31.4688 7.06129 31.4688 15.7344C31.4688 24.4075 24.4075 31.4688 15.7344 31.4688ZM15.7344 2.30259C8.32004 2.30259 2.30259 8.33539 2.30259 15.7344C2.30259 23.1334 8.32004 29.1662 15.7344 29.1662C23.1487 29.1662 29.1662 23.1334 29.1662 15.7344C29.1662 8.33539 23.1487 2.30259 15.7344 2.30259Z" fill="#333333"/>
<path d="M31.8524 33.0027C31.5607 33.0027 31.269 32.8952 31.0388 32.665L27.9686 29.5948C27.5235 29.1497 27.5235 28.4128 27.9686 27.9677C28.4138 27.5225 29.1506 27.5225 29.5958 27.9677L32.6659 31.0378C33.1111 31.483 33.1111 32.2198 32.6659 32.665C32.4357 32.8952 32.144 33.0027 31.8524 33.0027Z" fill="#333333"/>
</svg>
