<svg width="30" height="32" viewBox="0 0 30 32" fill="none" xmlns="http://www.w3.org/2000/svg">
<path d="M18.9761 17.4142H8.55766C7.94744 17.4142 7.44141 16.9081 7.44141 16.2979C7.44141 15.6877 7.94744 15.1816 8.55766 15.1816H18.9761C19.5863 15.1816 20.0923 15.6877 20.0923 16.2979C20.0923 16.9081 19.5863 17.4142 18.9761 17.4142Z" fill="white"/>
<path d="M15.0766 23.3673H8.55766C7.94744 23.3673 7.44141 22.8612 7.44141 22.251C7.44141 21.6408 7.94744 21.1348 8.55766 21.1348H15.0766C15.6868 21.1348 16.1929 21.6408 16.1929 22.251C16.1929 22.8612 15.6868 23.3673 15.0766 23.3673Z" fill="white"/>
<path d="M17.4877 8.18589H11.5344C10.1055 8.18589 7.44141 8.18589 7.44141 4.09294C7.44141 0 10.1055 0 11.5344 0H17.4877C18.9165 0 21.5807 0 21.5807 4.09294C21.5807 5.52175 21.5807 8.18589 17.4877 8.18589ZM11.5344 2.23252C10.0609 2.23252 9.67392 2.23252 9.67392 4.09294C9.67392 5.95337 10.0609 5.95337 11.5344 5.95337H17.4877C19.3482 5.95337 19.3482 5.5664 19.3482 4.09294C19.3482 2.23252 18.9612 2.23252 17.4877 2.23252H11.5344Z" fill="white"/>
<path d="M18.9764 32.0001H10.0463C1.68183 32.0001 0 28.1602 0 21.9538V13.0237C0 6.23689 2.45577 3.33462 8.49844 3.02207C9.09378 2.9923 9.64447 3.45369 9.67423 4.07879C9.704 4.70389 9.22773 5.20993 8.61751 5.2397C4.39061 5.47783 2.23252 6.74292 2.23252 13.0237V21.9538C2.23252 27.4607 3.31901 29.7676 10.0463 29.7676H18.9764C25.7037 29.7676 26.7902 27.4607 26.7902 21.9538V13.0237C26.7902 6.74292 24.6321 5.47783 20.4052 5.2397C19.795 5.20993 19.3187 4.67413 19.3485 4.06391C19.3782 3.45369 19.914 2.97742 20.5243 3.00718C26.5669 3.33462 29.0227 6.23689 29.0227 13.0088V21.9389C29.0227 28.1602 27.3409 32.0001 18.9764 32.0001Z" fill="white"/>
</svg>
