<svg width="20" height="20" viewBox="0 0 20 20" fill="none" xmlns="http://www.w3.org/2000/svg">
<g clip-path="url(#clip0_34_146)">
<path d="M14.9017 16.0808C13.436 17.0105 11.7356 17.5028 10 17.5C5.50667 17.5 1.76834 14.2667 0.984169 9.99999C1.34253 8.05893 2.31886 6.28574 3.7675 4.94499L1.16 2.33999L2.33917 1.16083L18.8383 17.6608L17.6592 18.8392L14.9008 16.0808H14.9017ZM4.94584 6.12499C3.81334 7.15465 3.02443 8.50731 2.68584 9.99999C2.94608 11.1387 3.46855 12.2009 4.21167 13.1022C4.95479 14.0034 5.89802 14.7187 6.9663 15.1911C8.03457 15.6635 9.19837 15.88 10.3651 15.8234C11.5318 15.7668 12.6692 15.4386 13.6867 14.865L11.9967 13.175C11.2772 13.6282 10.4252 13.8234 9.5802 13.7287C8.73523 13.634 7.94754 13.2549 7.34631 12.6537C6.74508 12.0525 6.36602 11.2648 6.2713 10.4198C6.17658 9.57483 6.37182 8.72275 6.825 8.00333L4.94584 6.12499ZM10.7617 11.94L8.06 9.23833C7.91172 9.61577 7.87682 10.0283 7.95959 10.4253C8.04235 10.8223 8.23918 11.1865 8.52593 11.4732C8.81268 11.76 9.17689 11.9568 9.57388 12.0396C9.97087 12.1223 10.3834 12.0874 10.7608 11.9392L10.7617 11.94ZM17.3392 13.8267L16.1467 12.635C16.7037 11.8411 17.1003 10.946 17.3142 9.99999C17.0877 9.0081 16.6619 8.07262 16.0626 7.25041C15.4634 6.4282 14.7032 5.73643 13.8282 5.21716C12.9533 4.6979 11.9819 4.36197 10.9731 4.2298C9.96431 4.09763 8.93917 4.17198 7.96 4.44833L6.645 3.13333C7.68417 2.72499 8.81667 2.49999 10 2.49999C14.4933 2.49999 18.2317 5.73333 19.0158 9.99999C18.7605 11.3881 18.1866 12.698 17.3392 13.8267ZM9.76917 6.25666C10.2996 6.22388 10.8309 6.30422 11.328 6.49234C11.825 6.68047 12.2763 6.97209 12.6521 7.34787C13.0279 7.72365 13.3195 8.17502 13.5077 8.67204C13.6958 9.16907 13.7761 9.7004 13.7433 10.2308L9.76834 6.25666H9.76917Z" fill="#A9A9A9"/>
</g>
<defs>
<clipPath id="clip0_34_146">
<rect width="20" height="20" fill="white"/>
</clipPath>
</defs>
</svg>
