<svg width="21" height="21" viewBox="0 0 21 21" fill="none" xmlns="http://www.w3.org/2000/svg">
<path fill-rule="evenodd" clip-rule="evenodd" d="M9.33333 1.99992C13.3834 1.99992 16.6667 5.28316 16.6667 9.33325C16.6667 11.2222 15.9525 12.9443 14.7794 14.2443C14.6632 14.2931 14.5542 14.3648 14.4596 14.4595C14.3649 14.5541 14.2932 14.6631 14.2444 14.7794C12.9444 15.9524 11.2223 16.6666 9.33333 16.6666C5.28324 16.6666 2 13.3833 2 9.33325C2 5.28316 5.28324 1.99992 9.33333 1.99992ZM15.1881 16.6023C13.587 17.8935 11.5504 18.6666 9.33333 18.6666C4.17868 18.6666 -2.77364e-07 14.4879 -5.02681e-07 9.33325C-7.27998e-07 4.17859 4.17867 -8.21986e-05 9.33333 -8.2424e-05C14.488 -8.26493e-05 18.6667 4.17859 18.6667 9.33325C18.6667 11.5504 17.8936 13.5869 16.6023 15.188L20.5404 19.1261C20.931 19.5167 20.931 20.1498 20.5404 20.5404C20.1499 20.9309 19.5168 20.9309 19.1262 20.5404L15.1881 16.6023Z" fill="#A9A9A9"/>
</svg>
