<svg width="22" height="23" viewBox="0 0 22 23" fill="none" xmlns="http://www.w3.org/2000/svg">
<path d="M14.4729 22.0424H14.3334C9.5686 22.0424 7.27207 20.1644 6.87501 15.9576C6.83208 15.5176 7.15403 15.1206 7.60475 15.0777C8.034 15.0347 8.4418 15.3674 8.48472 15.8074C8.79593 19.1771 10.3842 20.4326 14.3441 20.4326H14.4836C18.8513 20.4326 20.3966 18.8873 20.3966 14.5196V7.52273C20.3966 3.15504 18.8513 1.60971 14.4836 1.60971H14.3441C10.3627 1.60971 8.77447 2.88675 8.48472 6.32081C8.43107 6.7608 8.05547 7.09347 7.60475 7.05055C7.15403 7.01835 6.83208 6.62129 6.86428 6.1813C7.22915 1.91019 9.5364 0 14.3334 0H14.4729C19.742 0 21.9956 2.2536 21.9956 7.52273V14.5196C21.9956 19.7888 19.742 22.0424 14.4729 22.0424Z" fill="#333333"/>
<path d="M0.804801 10.2189L13.0172 10.2189C13.4572 10.2189 13.822 10.5838 13.822 11.0238C13.822 11.4637 13.4572 11.8286 13.0172 11.8286L0.804801 11.8286C0.364813 11.8286 -5.62349e-05 11.4637 -5.61964e-05 11.0238C-5.6158e-05 10.5838 0.364813 10.2189 0.804801 10.2189Z" fill="#333333"/>
<path d="M10.6238 6.62381C10.8277 6.62381 11.0316 6.69893 11.1926 6.8599L14.7876 10.4549C15.0988 10.7661 15.0988 11.2813 14.7876 11.5925L11.1926 15.1875C10.8813 15.4987 10.3662 15.4987 10.055 15.1875C9.74382 14.8763 9.74382 14.3612 10.055 14.05L13.0813 11.0237L10.055 7.99743C9.74382 7.68622 9.74382 7.17111 10.055 6.8599C10.2053 6.69893 10.4199 6.62381 10.6238 6.62381Z" fill="#333333"/>
</svg>
