<svg width="22" height="24" viewBox="0 0 22 24" fill="none" xmlns="http://www.w3.org/2000/svg">
<path d="M6.44748 21.243C6.18513 21.3292 6.04231 21.6117 6.12848 21.8741C6.21465 22.1364 6.49718 22.2792 6.75953 22.1931L6.44748 21.243ZM13.0691 22.1428L13.0244 21.6448L13.0691 22.1428ZM16.9484 21.2933L17.1651 21.7439L16.9484 21.2933ZM20.6552 17.9706L20.269 17.6531V17.6531L20.6552 17.9706ZM18.12 15.8916L18.4709 16.2478L18.12 15.8916ZM16.4128 17.5738L16.7638 17.93L16.4128 17.5738ZM11.776 17.8202C11.4998 17.8202 11.276 18.0441 11.276 18.3202C11.276 18.5963 11.4998 18.8202 11.776 18.8202V17.8202ZM20.2611 15.6827L19.9866 16.1006L20.2611 15.6827ZM7.91558 15.1254L8.13655 15.5739V15.5739L7.91558 15.1254ZM12.5556 14.7072L12.6854 14.2243L12.5556 14.7072ZM14.3677 15.1941L14.2379 15.677L14.3677 15.1941ZM14.9418 17.3244L14.5908 16.9682L14.9418 17.3244ZM13.5802 17.9641C13.3835 18.1579 13.3812 18.4744 13.575 18.6711C13.7688 18.8678 14.0854 18.8702 14.2821 18.6764L13.5802 17.9641ZM6.75953 22.1931C6.98661 22.1185 7.33678 22.0971 7.82117 22.1312C8.29542 22.1645 8.84083 22.2456 9.43655 22.3378C10.599 22.5177 11.9616 22.7442 13.1138 22.6408L13.0244 21.6448C12.0214 21.7348 10.7977 21.5365 9.5895 21.3496C8.99986 21.2583 8.41379 21.1704 7.89127 21.1336C7.37888 21.0976 6.86696 21.1052 6.44748 21.243L6.75953 22.1931ZM13.1138 22.6408C14.8049 22.489 15.5264 22.5319 17.1651 21.7439L16.7318 20.8427C15.285 21.5384 14.7524 21.4896 13.0244 21.6448L13.1138 22.6408ZM17.1651 21.7439C18.6185 21.045 20.1098 19.4217 21.0415 18.2881L20.269 17.6531C19.3326 18.7923 17.9642 20.2501 16.7318 20.8427L17.1651 21.7439ZM17.7691 15.5355L16.0619 17.2177L16.7638 17.93L18.4709 16.2478L17.7691 15.5355ZM14.5841 17.8202H11.776V18.8202H14.5841V17.8202ZM16.0619 17.2177C15.6712 17.6026 15.1397 17.8202 14.5841 17.8202V18.8202C15.4002 18.8202 16.1844 18.5008 16.7638 17.93L16.0619 17.2177ZM20.5356 15.2648C19.6664 14.6938 18.5096 14.8058 17.7691 15.5355L18.4709 16.2478C18.8743 15.8503 19.5097 15.7874 19.9866 16.1006L20.5356 15.2648ZM21.0415 18.2881C21.8415 17.3149 21.5482 15.93 20.5356 15.2648L19.9866 16.1006C20.5466 16.4685 20.6586 17.1791 20.269 17.6531L21.0415 18.2881ZM1.86208 14.5729H5.31039V13.5729H1.86208V14.5729ZM5.67247 14.9224V22.5675H6.67247V14.9224H5.67247ZM5.31039 22.9169H1.86208V23.9169H5.31039V22.9169ZM1.5 22.5675V14.9224H0.5V22.5675H1.5ZM1.86208 22.9169C1.65513 22.9169 1.5 22.7536 1.5 22.5675H0.5C0.5 23.3197 1.1168 23.9169 1.86208 23.9169V22.9169ZM5.67247 22.5675C5.67247 22.7536 5.51734 22.9169 5.31039 22.9169V23.9169C6.05567 23.9169 6.67247 23.3197 6.67247 22.5675H5.67247ZM5.31039 14.5729C5.51734 14.5729 5.67247 14.7363 5.67247 14.9224H6.67247C6.67247 14.1702 6.05567 13.5729 5.31039 13.5729V14.5729ZM1.86208 13.5729C1.1168 13.5729 0.5 14.1702 0.5 14.9224H1.5C1.5 14.7363 1.65513 14.5729 1.86208 14.5729V13.5729ZM6.82448 16.2203L8.13655 15.5739L7.6946 14.6769L6.38253 15.3233L6.82448 16.2203ZM10.6143 14.9976H10.9678V13.9976H10.6143V14.9976ZM12.4259 15.19L14.2379 15.677L14.4974 14.7112L12.6854 14.2243L12.4259 15.19ZM14.5908 16.9682L13.5802 17.9641L14.2821 18.6764L15.2927 17.6805L14.5908 16.9682ZM14.2379 15.677C14.8298 15.836 15.0124 16.5528 14.5908 16.9682L15.2927 17.6805C16.2753 16.7124 15.8213 15.067 14.4974 14.7112L14.2379 15.677ZM10.9678 14.9976C11.4604 14.9976 11.9508 15.0624 12.4259 15.19L12.6854 14.2243C12.1256 14.0739 11.548 13.9976 10.9678 13.9976V14.9976ZM8.13655 15.5739C8.90553 15.1951 9.75387 14.9976 10.6143 14.9976V13.9976C9.60107 13.9976 8.60148 14.2301 7.6946 14.6769L8.13655 15.5739ZM16.8795 8.12671C16.8795 9.72021 15.5665 11.0245 13.9312 11.0245V12.0245C16.1048 12.0245 17.8795 10.2864 17.8795 8.12671H16.8795ZM13.9312 11.0245C12.2959 11.0245 10.9829 9.72021 10.9829 8.12671H9.98286C9.98286 10.2864 11.7576 12.0245 13.9312 12.0245V11.0245ZM10.9829 8.12671C10.9829 6.53321 12.2959 5.22888 13.9312 5.22888V4.22888C11.7576 4.22888 9.98286 5.96708 9.98286 8.12671H10.9829ZM13.9312 5.22888C15.5665 5.22888 16.8795 6.53321 16.8795 8.12671H17.8795C17.8795 5.96708 16.1048 4.22888 13.9312 4.22888V5.22888ZM10.4829 7.62671C8.84757 7.62671 7.53455 6.32238 7.53455 4.72888H6.53455C6.53455 6.88852 8.30925 8.62671 10.4829 8.62671V7.62671ZM7.53455 4.72888C7.53455 3.13538 8.84757 1.83105 10.4829 1.83105V0.831055C8.30925 0.831055 6.53455 2.56925 6.53455 4.72888H7.53455ZM10.4829 1.83105C12.1181 1.83105 13.4312 3.13538 13.4312 4.72888H14.4312C14.4312 2.56925 12.6565 0.831055 10.4829 0.831055V1.83105Z" fill="white"/>
</svg>
