<svg width="21" height="22" viewBox="0 0 21 22" fill="none" xmlns="http://www.w3.org/2000/svg">
<path d="M7.55996 10.37C7.52996 10.37 7.50996 10.37 7.47996 10.37C7.42996 10.36 7.35996 10.36 7.29996 10.37C4.39996 10.28 2.20996 8 2.20996 5.19C2.20996 2.33 4.53996 0 7.39996 0C10.26 0 12.59 2.33 12.59 5.19C12.58 8 10.38 10.28 7.58996 10.37C7.57996 10.37 7.56996 10.37 7.55996 10.37ZM7.39996 1.5C5.36996 1.5 3.70996 3.16 3.70996 5.19C3.70996 7.19 5.26996 8.8 7.25996 8.87C7.31996 8.86 7.44996 8.86 7.57996 8.87C9.53996 8.78 11.08 7.17 11.09 5.19C11.09 3.16 9.42996 1.5 7.39996 1.5Z" fill="#333333"/>
<path d="M14.9398 10.5C14.9098 10.5 14.8798 10.5 14.8498 10.49C14.4398 10.53 14.0198 10.24 13.9798 9.83C13.9398 9.42 14.1898 9.05 14.5998 9C14.7198 8.99 14.8498 8.99 14.9598 8.99C16.4198 8.91 17.5598 7.71 17.5598 6.24C17.5598 4.72 16.3298 3.49 14.8098 3.49C14.3998 3.5 14.0598 3.16 14.0598 2.75C14.0598 2.34 14.3998 2 14.8098 2C17.1498 2 19.0598 3.91 19.0598 6.25C19.0598 8.55 17.2598 10.41 14.9698 10.5C14.9598 10.5 14.9498 10.5 14.9398 10.5Z" fill="#333333"/>
<path d="M7.57 21.3C5.61 21.3 3.64 20.8 2.15 19.8C0.76 18.88 0 17.62 0 16.25C0 14.88 0.76 13.61 2.15 12.68C5.15 10.69 10.01 10.69 12.99 12.68C14.37 13.6 15.14 14.86 15.14 16.23C15.14 17.6 14.38 18.87 12.99 19.8C11.49 20.8 9.53 21.3 7.57 21.3ZM2.98 13.94C2.02 14.58 1.5 15.4 1.5 16.26C1.5 17.11 2.03 17.93 2.98 18.56C5.47 20.23 9.67 20.23 12.16 18.56C13.12 17.92 13.64 17.1 13.64 16.24C13.64 15.39 13.11 14.57 12.16 13.94C9.67 12.28 5.47 12.28 2.98 13.94Z" fill="#333333"/>
<path d="M16.7401 19.5C16.3901 19.5 16.0801 19.26 16.0101 18.9C15.9301 18.49 16.1901 18.1 16.5901 18.01C17.2201 17.88 17.8001 17.63 18.2501 17.28C18.8201 16.85 19.1301 16.31 19.1301 15.74C19.1301 15.17 18.8201 14.63 18.2601 14.21C17.8201 13.87 17.2701 13.63 16.6201 13.48C16.2201 13.39 15.9601 12.99 16.0501 12.58C16.1401 12.18 16.5401 11.92 16.9501 12.01C17.8101 12.2 18.5601 12.54 19.1701 13.01C20.1001 13.71 20.6301 14.7 20.6301 15.74C20.6301 16.78 20.0901 17.77 19.1601 18.48C18.5401 18.96 17.7601 19.31 16.9001 19.48C16.8401 19.5 16.7901 19.5 16.7401 19.5Z" fill="#333333"/>
</svg>
