<svg width="22" height="24" viewBox="0 0 22 24" fill="none" xmlns="http://www.w3.org/2000/svg">
<path d="M6.44748 20.9119C6.18513 20.9981 6.04231 21.2806 6.12848 21.543C6.21465 21.8054 6.49718 21.9482 6.75953 21.862L6.44748 20.9119ZM13.0691 21.8117L13.0244 21.3137L13.0691 21.8117ZM16.9484 20.9622L17.1651 21.4129L16.9484 20.9622ZM20.6552 17.6396L20.269 17.3221V17.3221L20.6552 17.6396ZM18.12 15.5606L18.4709 15.9167L18.12 15.5606ZM16.4128 17.2427L16.7638 17.5989L16.4128 17.2427ZM11.776 17.4891C11.4998 17.4891 11.276 17.713 11.276 17.9891C11.276 18.2653 11.4998 18.4891 11.776 18.4891V17.4891ZM20.2611 15.3517L19.9866 15.7696L20.2611 15.3517ZM7.91558 14.7943L8.13655 15.2429V15.2429L7.91558 14.7943ZM12.5556 14.3761L12.6854 13.8932L12.5556 14.3761ZM14.3677 14.8631L14.2379 15.3459L14.3677 14.8631ZM14.9418 16.9933L14.5908 16.6372L14.9418 16.9933ZM13.5802 17.633C13.3835 17.8268 13.3812 18.1434 13.575 18.3401C13.7688 18.5368 14.0854 18.5391 14.2821 18.3453L13.5802 17.633ZM6.75953 21.862C6.98661 21.7874 7.33678 21.7661 7.82117 21.8001C8.29542 21.8335 8.84083 21.9145 9.43655 22.0067C10.599 22.1866 11.9616 22.4131 13.1138 22.3097L13.0244 21.3137C12.0214 21.4037 10.7977 21.2055 9.5895 21.0185C8.99986 20.9272 8.41379 20.8393 7.89127 20.8026C7.37888 20.7666 6.86696 20.7742 6.44748 20.9119L6.75953 21.862ZM13.1138 22.3097C14.8049 22.1579 15.5264 22.2009 17.1651 21.4129L16.7318 20.5116C15.285 21.2073 14.7524 21.1586 13.0244 21.3137L13.1138 22.3097ZM17.1651 21.4129C18.6185 20.714 20.1098 19.0907 21.0415 17.9571L20.269 17.3221C19.3326 18.4613 17.9642 19.919 16.7318 20.5116L17.1651 21.4129ZM17.7691 15.2044L16.0619 16.8866L16.7638 17.5989L18.4709 15.9167L17.7691 15.2044ZM14.5841 17.4891H11.776V18.4891H14.5841V17.4891ZM16.0619 16.8866C15.6712 17.2716 15.1397 17.4891 14.5841 17.4891V18.4891C15.4002 18.4891 16.1844 18.1697 16.7638 17.5989L16.0619 16.8866ZM20.5356 14.9338C19.6664 14.3628 18.5096 14.4747 17.7691 15.2044L18.4709 15.9167C18.8743 15.5192 19.5097 15.4563 19.9866 15.7696L20.5356 14.9338ZM21.0415 17.9571C21.8415 16.9838 21.5482 15.599 20.5356 14.9338L19.9866 15.7696C20.5466 16.1374 20.6586 16.848 20.269 17.3221L21.0415 17.9571ZM1.86208 14.2419H5.31039V13.2419H1.86208V14.2419ZM5.67247 14.5913V22.2364H6.67247V14.5913H5.67247ZM5.31039 22.5859H1.86208V23.5859H5.31039V22.5859ZM1.5 22.2364V14.5913H0.5V22.2364H1.5ZM1.86208 22.5859C1.65513 22.5859 1.5 22.4225 1.5 22.2364H0.5C0.5 22.9886 1.1168 23.5859 1.86208 23.5859V22.5859ZM5.67247 22.2364C5.67247 22.4225 5.51734 22.5859 5.31039 22.5859V23.5859C6.05567 23.5859 6.67247 22.9886 6.67247 22.2364H5.67247ZM5.31039 14.2419C5.51734 14.2419 5.67247 14.4052 5.67247 14.5913H6.67247C6.67247 13.8391 6.05567 13.2419 5.31039 13.2419V14.2419ZM1.86208 13.2419C1.1168 13.2419 0.5 13.8391 0.5 14.5913H1.5C1.5 14.4052 1.65513 14.2419 1.86208 14.2419V13.2419ZM6.82448 15.8893L8.13655 15.2429L7.6946 14.3458L6.38253 14.9923L6.82448 15.8893ZM10.6143 14.6666H10.9678V13.6666H10.6143V14.6666ZM12.4259 14.859L14.2379 15.3459L14.4974 14.3802L12.6854 13.8932L12.4259 14.859ZM14.5908 16.6372L13.5802 17.633L14.2821 18.3453L15.2927 17.3495L14.5908 16.6372ZM14.2379 15.3459C14.8298 15.505 15.0124 16.2218 14.5908 16.6372L15.2927 17.3495C16.2753 16.3813 15.8213 14.736 14.4974 14.3802L14.2379 15.3459ZM10.9678 14.6666C11.4604 14.6666 11.9508 14.7313 12.4259 14.859L12.6854 13.8932C12.1256 13.7428 11.548 13.6666 10.9678 13.6666V14.6666ZM8.13655 15.2429C8.90553 14.864 9.75387 14.6666 10.6143 14.6666V13.6666C9.60107 13.6666 8.60148 13.899 7.6946 14.3458L8.13655 15.2429ZM16.8795 7.79566C16.8795 9.38916 15.5665 10.6935 13.9312 10.6935V11.6935C16.1048 11.6935 17.8795 9.9553 17.8795 7.79566H16.8795ZM13.9312 10.6935C12.2959 10.6935 10.9829 9.38916 10.9829 7.79566H9.98286C9.98286 9.9553 11.7576 11.6935 13.9312 11.6935V10.6935ZM10.9829 7.79566C10.9829 6.20216 12.2959 4.89783 13.9312 4.89783V3.89783C11.7576 3.89783 9.98286 5.63602 9.98286 7.79566H10.9829ZM13.9312 4.89783C15.5665 4.89783 16.8795 6.20216 16.8795 7.79566H17.8795C17.8795 5.63602 16.1048 3.89783 13.9312 3.89783V4.89783ZM10.4829 7.29566C8.84757 7.29566 7.53455 5.99133 7.53455 4.39783H6.53455C6.53455 6.55747 8.30925 8.29566 10.4829 8.29566V7.29566ZM7.53455 4.39783C7.53455 2.80433 8.84757 1.5 10.4829 1.5V0.5C8.30925 0.5 6.53455 2.23819 6.53455 4.39783H7.53455ZM10.4829 1.5C12.1181 1.5 13.4312 2.80433 13.4312 4.39783H14.4312C14.4312 2.23819 12.6565 0.5 10.4829 0.5V1.5Z" fill="#333333"/>
</svg>
