<svg width="22" height="23" viewBox="0 0 22 23" fill="none" xmlns="http://www.w3.org/2000/svg">
<path d="M14.4729 22.0424H14.3334C9.5686 22.0424 7.27207 20.1644 6.87501 15.9576C6.83208 15.5176 7.15403 15.1206 7.60475 15.0777C8.034 15.0347 8.4418 15.3674 8.48472 15.8074C8.79593 19.1771 10.3842 20.4326 14.3441 20.4326H14.4836C18.8513 20.4326 20.3966 18.8873 20.3966 14.5196V7.52273C20.3966 3.15504 18.8513 1.60971 14.4836 1.60971H14.3441C10.3627 1.60971 8.77447 2.88675 8.48472 6.32081C8.43107 6.7608 8.05547 7.09347 7.60475 7.05055C7.15403 7.01835 6.83208 6.62129 6.86428 6.1813C7.22915 1.91019 9.5364 0 14.3334 0H14.4729C19.742 0 21.9956 2.2536 21.9956 7.52273V14.5196C21.9956 19.7888 19.742 22.0424 14.4729 22.0424Z" fill="#FF0000"/>
<path d="M14.2162 11.826H2.00383C1.56384 11.826 1.19897 11.4612 1.19897 11.0212C1.19897 10.5812 1.56384 10.2163 2.00383 10.2163H14.2162C14.6562 10.2163 15.0211 10.5812 15.0211 11.0212C15.0211 11.4612 14.6562 11.826 14.2162 11.826Z" fill="#FF0000"/>
<path d="M4.3972 15.4211C4.19331 15.4211 3.98941 15.346 3.82844 15.185L0.233409 11.59C-0.0778028 11.2788 -0.0778028 10.7637 0.233409 10.4525L3.82844 6.85743C4.13965 6.54622 4.65476 6.54622 4.96597 6.85743C5.27718 7.16864 5.27718 7.68375 4.96597 7.99496L1.93971 11.0212L4.96597 14.0475C5.27718 14.3587 5.27718 14.8738 4.96597 15.185C4.81573 15.346 4.6011 15.4211 4.3972 15.4211Z" fill="#FF0000"/>
</svg>
