<svg width="26" height="26" viewBox="0 0 26 26" fill="none" xmlns="http://www.w3.org/2000/svg">
<path d="M7 18.433C7 16.4308 8.45485 14.7254 10.432 14.4098L10.6101 14.3814C12.1934 14.1287 13.8066 14.1287 15.3899 14.3814L15.568 14.4098C17.5451 14.7254 19 16.4308 19 18.433C19 19.2984 18.2984 20 17.433 20H8.56697C7.70156 20 7 19.2984 7 18.433Z" stroke="white" stroke-width="1.5"/>
<path d="M16.5 7.5C16.5 9.433 14.933 11 13 11C11.067 11 9.5 9.433 9.5 7.5C9.5 5.567 11.067 4 13 4C14.933 4 16.5 5.567 16.5 7.5Z" stroke="white" stroke-width="1.5"/>
<path d="M19 11C20.933 11 22.5 9.433 22.5 7.5C22.5 5.567 20.933 4 19 4M21.3899 20H23.433C24.2984 20 25 19.2984 25 18.433C25 16.4308 23.5451 14.7254 21.568 14.4098V14.4098C21.4494 14.3909 21.3293 14.3814 21.2093 14.3814C20.8895 14.3814 20.7902 14.3814 20.2412 14.3814" stroke="white" stroke-width="1.5" stroke-linecap="round"/>
<path d="M7 11C5.067 11 3.5 9.433 3.5 7.5C3.5 5.567 5.067 4 7 4M4.61013 20H2.56697C1.70156 20 1 19.2984 1 18.433C1 16.4308 2.45485 14.7254 4.43204 14.4098V14.4098C4.55058 14.3909 4.67065 14.3814 4.7907 14.3814C5.11046 14.3814 5.20977 14.3814 5.75883 14.3814" stroke="white" stroke-width="1.5" stroke-linecap="round"/>
</svg>
