<svg width="15" height="22" viewBox="0 0 15 22" fill="none" xmlns="http://www.w3.org/2000/svg">
<path d="M7.48998 10.2741C7.46026 10.2741 7.44044 10.2741 7.41072 10.2741C7.36118 10.2642 7.29183 10.2642 7.23239 10.2741C4.3592 10.1849 2.18945 7.92602 2.18945 5.14201C2.18945 2.30845 4.49791 0 7.33146 0C10.165 0 12.4735 2.30845 12.4735 5.14201C12.4636 7.92602 10.2839 10.1849 7.5197 10.2741C7.5098 10.2741 7.49989 10.2741 7.48998 10.2741ZM7.33146 1.48613C5.32023 1.48613 3.67558 3.13078 3.67558 5.14201C3.67558 7.12351 5.22116 8.71863 7.19276 8.78798C7.24229 8.77807 7.381 8.77807 7.5098 8.78798C9.45167 8.69881 10.9774 7.1037 10.9873 5.14201C10.9873 3.13078 9.34269 1.48613 7.33146 1.48613Z" fill="#333333"/>
<path d="M7.5 21.103C5.55812 21.103 3.60634 20.6076 2.13012 19.6168C0.752972 18.7054 0 17.457 0 16.0997C0 14.7423 0.752972 13.4841 2.13012 12.5627C5.10238 10.5911 9.91744 10.5911 12.8699 12.5627C14.2371 13.4742 15 14.7225 15 16.0799C15 17.4372 14.247 18.6954 12.8699 19.6168C11.3838 20.6076 9.44188 21.103 7.5 21.103ZM2.95244 13.811C2.00132 14.4451 1.48613 15.2575 1.48613 16.1096C1.48613 16.9517 2.01123 17.7641 2.95244 18.3883C5.41942 20.0429 9.58058 20.0429 12.0476 18.3883C12.9987 17.7542 13.5139 16.9418 13.5139 16.0898C13.5139 15.2476 12.9888 14.4352 12.0476 13.811C9.58058 12.1664 5.41942 12.1664 2.95244 13.811Z" fill="#333333"/>
</svg>
