<svg width="20" height="22" viewBox="0 0 20 22" fill="none" xmlns="http://www.w3.org/2000/svg">
<path d="M5.75 4.5C5.34 4.5 5 4.16 5 3.75V0.75C5 0.34 5.34 0 5.75 0C6.16 0 6.5 0.34 6.5 0.75V3.75C6.5 4.16 6.16 4.5 5.75 4.5Z" fill="white"/>
<path d="M13.75 4.5C13.34 4.5 13 4.16 13 3.75V0.75C13 0.34 13.34 0 13.75 0C14.16 0 14.5 0.34 14.5 0.75V3.75C14.5 4.16 14.16 4.5 13.75 4.5Z" fill="white"/>
<path d="M18.25 8.58984H1.25C0.84 8.58984 0.5 8.24984 0.5 7.83984C0.5 7.42984 0.84 7.08984 1.25 7.08984H18.25C18.66 7.08984 19 7.42984 19 7.83984C19 8.24984 18.66 8.58984 18.25 8.58984Z" fill="white"/>
<path d="M13.75 21.5H5.75C2.1 21.5 0 19.4 0 15.75V7.25C0 3.6 2.1 1.5 5.75 1.5H13.75C17.4 1.5 19.5 3.6 19.5 7.25V15.75C19.5 19.4 17.4 21.5 13.75 21.5ZM5.75 3C2.89 3 1.5 4.39 1.5 7.25V15.75C1.5 18.61 2.89 20 5.75 20H13.75C16.61 20 18 18.61 18 15.75V7.25C18 4.39 16.61 3 13.75 3H5.75Z" fill="white"/>
</svg>
