<svg width="20" height="22" viewBox="0 0 20 22" fill="none" xmlns="http://www.w3.org/2000/svg">
<path d="M5.75 4.5C5.34 4.5 5 4.16 5 3.75V0.75C5 0.34 5.34 0 5.75 0C6.16 0 6.5 0.34 6.5 0.75V3.75C6.5 4.16 6.16 4.5 5.75 4.5Z" fill="#292D32"/>
<path d="M13.75 4.5C13.34 4.5 13 4.16 13 3.75V0.75C13 0.34 13.34 0 13.75 0C14.16 0 14.5 0.34 14.5 0.75V3.75C14.5 4.16 14.16 4.5 13.75 4.5Z" fill="#292D32"/>
<path d="M18.25 8.58984H1.25C0.84 8.58984 0.5 8.24984 0.5 7.83984C0.5 7.42984 0.84 7.08984 1.25 7.08984H18.25C18.66 7.08984 19 7.42984 19 7.83984C19 8.24984 18.66 8.58984 18.25 8.58984Z" fill="#292D32"/>
<path d="M13.75 21.5H5.75C2.1 21.5 0 19.4 0 15.75V7.25C0 3.6 2.1 1.5 5.75 1.5H13.75C17.4 1.5 19.5 3.6 19.5 7.25V15.75C19.5 19.4 17.4 21.5 13.75 21.5ZM5.75 3C2.89 3 1.5 4.39 1.5 7.25V15.75C1.5 18.61 2.89 20 5.75 20H13.75C16.61 20 18 18.61 18 15.75V7.25C18 4.39 16.61 3 13.75 3H5.75Z" fill="#292D32"/>
<path d="M6.25 13.25C6.12 13.25 5.99 13.22 5.87 13.17C5.75 13.12 5.64001 13.05 5.54001 12.96C5.45001 12.86 5.37999 12.75 5.32999 12.63C5.27999 12.51 5.25 12.38 5.25 12.25C5.25 11.99 5.36001 11.73 5.54001 11.54C5.64001 11.45 5.75 11.38 5.87 11.33C6.05 11.25 6.25001 11.23 6.45001 11.27C6.51001 11.28 6.57 11.3 6.63 11.33C6.69 11.35 6.75 11.38 6.81 11.42C6.86 11.46 6.90999 11.5 6.95999 11.54C6.99999 11.59 7.04999 11.64 7.07999 11.69C7.11999 11.75 7.15001 11.81 7.17001 11.87C7.20001 11.93 7.22001 11.99 7.23001 12.05C7.24001 12.12 7.25 12.18 7.25 12.25C7.25 12.51 7.13999 12.77 6.95999 12.96C6.76999 13.14 6.51 13.25 6.25 13.25Z" fill="#292D32"/>
<path d="M9.75 13.2499C9.49 13.2499 9.23001 13.1399 9.04001 12.9599C9.00001 12.9099 8.96001 12.8599 8.92001 12.8099C8.88001 12.7499 8.84999 12.6899 8.82999 12.6299C8.79999 12.5699 8.77999 12.5099 8.76999 12.4499C8.75999 12.3799 8.75 12.3199 8.75 12.2499C8.75 12.1199 8.77999 11.9899 8.82999 11.8699C8.87999 11.7499 8.95001 11.6399 9.04001 11.5399C9.32001 11.2599 9.77 11.1699 10.13 11.3299C10.26 11.3799 10.36 11.4499 10.46 11.5399C10.64 11.7299 10.75 11.9899 10.75 12.2499C10.75 12.3199 10.74 12.3799 10.73 12.4499C10.72 12.5099 10.7 12.5699 10.67 12.6299C10.65 12.6899 10.62 12.7499 10.58 12.8099C10.54 12.8599 10.5 12.9099 10.46 12.9599C10.36 13.0499 10.26 13.1199 10.13 13.1699C10.01 13.2199 9.88 13.2499 9.75 13.2499Z" fill="#292D32"/>
<path d="M6.25 16.7499C6.12 16.7499 5.99 16.7199 5.87 16.6699C5.75 16.6199 5.64001 16.5499 5.54001 16.4599C5.45001 16.3599 5.37999 16.2599 5.32999 16.1299C5.27999 16.0099 5.25 15.8799 5.25 15.7499C5.25 15.4899 5.36001 15.2299 5.54001 15.0399C5.64001 14.9499 5.75 14.8799 5.87 14.8299C6.24 14.6699 6.67999 14.7599 6.95999 15.0399C6.99999 15.0899 7.04999 15.1399 7.07999 15.1899C7.11999 15.2499 7.15001 15.3099 7.17001 15.3699C7.20001 15.4299 7.22001 15.4899 7.23001 15.5599C7.24001 15.6199 7.25 15.6899 7.25 15.7499C7.25 16.0099 7.13999 16.2699 6.95999 16.4599C6.76999 16.6399 6.51 16.7499 6.25 16.7499Z" fill="#292D32"/>
</svg>
