<svg width="149" height="23" viewBox="0 0 149 23" fill="none" xmlns="http://www.w3.org/2000/svg">
<path d="M12.714 7.986V0.836H17.134V22H13.442L13.13 20.258C12.012 21.402 10.4 22.26 8.45 22.26C4.342 22.26 0.936 18.776 0.936 14.278C0.936 9.78 4.368 6.322 8.45 6.322C10.166 6.322 11.622 6.998 12.714 7.986ZM9.074 17.944C11.154 17.944 12.714 16.384 12.714 14.278C12.714 12.172 11.128 10.638 9.074 10.638C6.994 10.638 5.408 12.172 5.408 14.278C5.408 16.41 6.994 17.944 9.074 17.944ZM35.5554 13.888C35.5554 14.772 35.5034 15.448 35.3994 15.786H24.2714C24.8434 17.45 26.3514 18.464 28.4314 18.464C29.9394 18.464 31.1354 18.048 32.1234 17.164L34.6454 19.946C32.7214 21.61 30.9794 22.26 28.4314 22.26C23.3614 22.26 19.8774 19.062 19.8774 14.382C19.8774 9.728 23.3354 6.322 28.0154 6.322C32.4094 6.322 35.5554 9.468 35.5554 13.888ZM27.9894 10.118C26.0654 10.118 24.7914 10.976 24.2714 12.536H31.3694C31.3434 12.25 31.2914 11.99 31.1874 11.756C30.7454 10.716 29.6014 10.118 27.9894 10.118ZM47.1203 6.322C50.9943 6.322 53.4383 8.896 53.4383 12.978V22H49.0183V13.836C49.0183 11.756 47.9003 10.56 45.9763 10.56C43.8443 10.56 42.7263 12.068 42.7263 14.876V22H38.3063V6.582H41.9983L42.3103 8.376C43.6623 6.998 45.3003 6.322 47.1203 6.322ZM65.0563 17.632L67.0583 20.96C66.0703 21.792 64.7183 22.26 62.8983 22.26C59.4403 22.26 57.4123 20.232 57.4123 16.826V10.612H55.3583V6.582H57.4123V4.216L61.8323 3.436V6.582H65.9143V10.612H61.8323V16.67C61.8323 17.658 62.4563 18.256 63.4443 18.256C64.1983 18.256 64.5883 18.048 65.0563 17.632ZM80.1866 8.324L80.4986 6.582H84.1906V22H80.4986L80.1866 20.258C79.0686 21.402 77.4566 22.26 75.5066 22.26C71.3986 22.26 67.9926 18.776 67.9926 14.278C67.9926 9.78 71.4246 6.322 75.5066 6.322C77.4566 6.322 79.0686 7.18 80.1866 8.324ZM76.1306 17.944C78.2106 17.944 79.7706 16.384 79.7706 14.278C79.7706 12.172 78.1846 10.638 76.1306 10.638C74.0506 10.638 72.4646 12.172 72.4646 14.278C72.4646 16.41 74.0506 17.944 76.1306 17.944ZM95.982 17.632L97.984 20.96C96.996 21.792 95.644 22.26 93.824 22.26C90.366 22.26 88.338 20.232 88.338 16.826V10.612H86.284V6.582H88.338V4.216L92.758 3.436V6.582H96.84V10.612H92.758V16.67C92.758 17.658 93.382 18.256 94.37 18.256C95.124 18.256 95.514 18.048 95.982 17.632ZM114.596 13.888C114.596 14.772 114.544 15.448 114.44 15.786H103.312C103.884 17.45 105.392 18.464 107.472 18.464C108.98 18.464 110.176 18.048 111.164 17.164L113.686 19.946C111.762 21.61 110.02 22.26 107.472 22.26C102.402 22.26 98.9184 19.062 98.9184 14.382C98.9184 9.728 102.376 6.322 107.056 6.322C111.45 6.322 114.596 9.468 114.596 13.888ZM107.03 10.118C105.106 10.118 103.832 10.976 103.312 12.536H110.41C110.384 12.25 110.332 11.99 110.228 11.756C109.786 10.716 108.642 10.118 107.03 10.118ZM124.705 22.26C120.025 22.26 116.463 18.802 116.463 14.278C116.463 9.78 120.025 6.322 124.705 6.322C127.019 6.322 129.177 7.232 130.737 8.87L127.565 11.964C126.785 11.106 125.823 10.638 124.705 10.638C122.521 10.638 120.935 12.172 120.935 14.278C120.935 16.41 122.521 17.944 124.705 17.944C125.797 17.944 126.759 17.502 127.591 16.618L130.763 19.686C129.229 21.324 127.045 22.26 124.705 22.26ZM142.081 6.322C145.955 6.322 148.399 8.896 148.399 12.978V22H143.979V13.836C143.979 11.756 142.861 10.56 140.937 10.56C138.805 10.56 137.687 12.068 137.687 14.876V22H133.267V0.836H137.687V8.194C138.935 6.92 140.365 6.322 142.081 6.322Z" fill="white"/>
</svg>
