<svg width="18" height="18" viewBox="0 0 18 18" fill="none" xmlns="http://www.w3.org/2000/svg">
<path fill-rule="evenodd" clip-rule="evenodd" d="M9 18C9.55229 18 10 17.5523 10 17L10 14C10 13.4477 9.55229 13 9 13C8.44772 13 8 13.4477 8 14L8 16L2 16L2 2L8 2L8 4C8 4.55228 8.44772 5 9 5C9.55229 5 10 4.55228 10 4L10 0.999999C10 0.447715 9.55229 -7.38523e-07 9 -7.86805e-07L1 -1.48619e-06C0.447717 -1.53447e-06 1.53447e-06 0.447714 1.48619e-06 0.999998L8.74228e-08 17C3.91405e-08 17.5523 0.447716 18 1 18L9 18ZM14.7071 12.7071C14.3166 13.0976 13.6834 13.0976 13.2929 12.7071C12.9024 12.3166 12.9024 11.6834 13.2929 11.2929L14.5858 10L5 10C4.44772 10 4 9.55228 4 9C4 8.44771 4.44772 8 5 8L14.5858 8L13.2929 6.70711C12.9024 6.31658 12.9024 5.68342 13.2929 5.29289C13.6834 4.90237 14.3166 4.90237 14.7071 5.29289L17.7071 8.29289C18.0976 8.68342 18.0976 9.31658 17.7071 9.70711L14.7071 12.7071Z" fill="white"/>
</svg>
